<svg class="{{ with .class }}{{ . }} {{ end }}icon icon-mail"
      style="height: 24px; width: 24px;"
   viewBox="409.289 277.787 24 16.80077"
   width="24"
   height="16.80077"
   version="1.1"
   id="svg315"
   sodipodi:docname="YouTube_Logo_2017.svg"
   inkscape:version="1.2.2 (b0a8486541, 2022-12-01)"
   xmlns:inkscape="http://www.inkscape.org/namespaces/inkscape"
   xmlns:sodipodi="http://sodipodi.sourceforge.net/DTD/sodipodi-0.dtd"
   xmlns="http://www.w3.org/2000/svg"
   xmlns:svg="http://www.w3.org/2000/svg">
  <path
     d="m 421.28886,277.787 c 0,0 -7.50527,1e-5 -9.37619,0.50182 -1.03325,0.27659 -1.84526,1.08859 -2.12184,2.12185 -0.50182,1.87091 -0.50183,5.77672 -0.50183,5.77672 0,0 1e-5,3.90578 0.50183,5.77672 0.27658,1.03324 1.08859,1.8453 2.12184,2.12184 1.87092,0.50184 9.37619,0.50182 9.37619,0.50182 0,0 7.50562,2e-5 9.37647,-0.50182 1.03325,-0.27654 1.84531,-1.0886 2.12185,-2.12184 0.50183,-1.87094 0.50182,-5.77672 0.50182,-5.77672 0,0 -0.002,-3.90581 -0.50182,-5.77672 -0.27654,-1.03326 -1.0886,-1.84526 -2.12185,-2.12185 -1.87085,-0.50181 -9.37647,-0.50182 -9.37647,-0.50182 z m -2.40233,4.80121 6.2352,3.59946 -6.2352,3.59976 z"
     style="fill:#ffffff;" />
</svg>
